Patient4_TMGait_0pt5_01_left_31_EMG.mot
version=1
nRows=37
nColumns=33
inDegrees=no
endheader
time	1LAddLong	2LGlutMax	3LGlutMed	4LIliopsoas	5LSemiMemb	6LBicFemLong	7LRecFem	8LVastMed	9LVastLat	10LGasMed	11LTibAnt	12lTibPost	13LPeroneusLong	14LSol	15LExtDigLong	16LFlexDigLong	17RAddLong	18RGlutMax	19RGlutMed	20RIliopsoas	21RSemiMemb	22RBicFemLong	23RRecFem	24RVastMed	25RVastLat	26RGasMed	27RTibAnt	28RTibPost	29RPeroneusLong	30RSol	31RExtDigLong	32RFlexDigLong
42.295	-0.019226	-0.045166	-0.053101	0.007935	-0.14557	0.090637	0.17685	0.011902	0.013885	0.18387	0.37643	-0.001678	-0.063477	-0.094452	0.26016	0.011444	-0.01358	0.061188	-0.42709	0.077972	-0.65689	-0.32577	-0.055695	-0.40619	0.11856	0.002747	0.3038	0.002136	-1.2834	-0.052185	-0.00061	-0.016022
42.296	-0.000153	-0.016479	-0.061646	0.02182	-0.044861	-0.051117	0.15732	0.006714	0.032501	0.26855	0.38986	0.007477	-0.097198	-0.003662	0.5632	-0.003204	0.046082	0.079651	0.42862	0.04776	-0.41	-0.63446	0.064087	-0.41473	0.077209	0.005188	0.17929	-0.002441	0.22919	-0.057068	0	-0.016479
42.297	0.019989	0.010834	-0.05127	0.027771	0.022583	-0.090027	0.13687	-0.004578	0.042267	0.33463	0.14648	0.006409	-0.11719	0.050812	0.11444	0.003052	0.084839	0.069122	0.47745	0.020752	-0.75623	-0.57907	0.17883	-0.27222	-0.037689	0.008392	0.018616	-0.006409	2.1315	-0.046692	-0.000458	-0.00946
42.298	0.019531	-0.000458	-0.052643	0.01358	0.072327	-0.1236	0.17364	-0.007935	0.028076	0.25589	-0.27329	0.011292	-0.058594	0.048676	-0.019226	0.004272	0.11231	0.050507	0.92621	-0.007782	-0.8696	-0.81772	0.20264	-0.18967	-0.17425	0.010071	0.008698	-0.002747	-0.4158	-0.053253	0	-0.013428
42.299	0.030212	-0.039978	-0.045624	0.016022	0.070953	-0.093231	0.15778	-0.002899	0.03067	-0.041809	-0.43533	0.000916	0.009155	0.066986	-0.0354	-0.002594	0.14069	-0.092468	1.1107	0.055542	-1.1197	-0.93491	0.28183	-0.12207	-0.32928	0.012817	-0.23483	-0.002136	0.37201	-0.17425	0.002594	-0.001831
42.3	0.020142	-0.078125	-0.053864	0.015564	0.082703	0.071411	0.15274	0.00473	0.019531	-0.42404	-0.26291	-0.000458	-0.042114	0.033875	-0.22858	-0.005188	0.065002	-0.23254	0.38788	0.13901	-1.1476	-0.9201	0.33524	-0.069733	-0.29755	0.009766	-0.28946	-0.008698	0.5423	-0.19012	-0.001068	-0.005493
42.301	0.007019	-0.063629	-0.050049	0.010681	0.041199	0.2002	0.16403	0.007935	0.020294	-0.24033	-0.11383	-0.003052	-0.082092	-0.098572	-0.44998	-0.00885	0.015259	-0.081329	-0.15991	0.13382	-0.53101	-0.73883	0.30701	0.29739	-0.13748	0.005341	-0.24826	-0.010376	0.78247	0.048065	-0.001526	-0.002899
42.302	0.012512	-0.076447	-0.03891	0.014191	0.099945	0.24185	0.21103	0.008392	0.003662	0.37018	-0.11139	-0.005341	-0.044098	-0.2063	-0.41336	-0.004272	-0.072937	-0.094452	-0.071106	0.089111	0.40619	-0.73852	0.3067	0.40634	0.062408	0.011902	-0.065918	-0.007172	1.1217	0.22049	-0.00412	-0.011292
42.303	0.008087	-0.026398	-0.043335	0.021667	0.059052	0.18204	0.19104	0.00473	0.017242	0.34088	-0.1239	-0.001678	0.023346	-0.21057	-0.2446	-0.006714	-0.16586	-0.016022	0.13229	0.010223	0.11414	-0.52185	0.27649	0.5542	0.10986	0.024414	0.11307	-0.015717	0.51209	0.21835	-0.010376	-0.007629
42.304	0.012817	0.002899	-0.043793	0.002136	0.03952	0.074921	0.19211	0.002441	0.034943	-0.08194	-0.071564	-0.001373	0.011902	-0.068359	-0.05722	-0.007019	-0.22476	-0.001984	-0.004883	-0.056	-0.43762	-0.24506	0.25009	0.60989	0.072327	0.012665	-0.11078	-0.01358	0.22858	0.12512	0.003357	-0.016174
42.305	0.010834	-0.041351	-0.021973	0.005493	0.036469	0.088348	0.19577	0.006256	0.02594	-0.15015	-0.050507	-0.00351	-0.037842	0.019379	0.4921	0.00473	-0.28473	0.033112	0.23056	-0.17807	-0.55725	-0.23209	0.18951	0.55252	0.47409	-0.019836	-0.20386	-0.017395	0.74112	0.14328	-0.000153	-0.016479
42.306	0.002747	-0.026398	-0.006409	0.014801	0.031128	0.10925	0.2356	-0.000763	0.028076	-0.073395	-0.084229	0.005493	-0.06073	0.045166	0.13306	0.016022	-0.21484	0.049591	0.57114	-0.093384	-0.49454	-0.18448	0.10361	0.6871	0.77743	-0.028839	-0.019836	-0.016785	1.0747	0.22888	0.000153	-0.011597
42.307	0.000305	-0.037537	0.00061	0.007172	0.038147	0.058289	0.21927	0.009613	0.023193	-0.098267	-0.086212	0.011139	-0.11139	0.051575	0.23621	0.02243	-0.14404	0.11093	0.30472	-0.088959	-0.34546	0.10162	0.022125	0.746	1.0413	-0.050812	0.13489	-0.012817	0.98557	0.22553	-0.006256	-0.018616
42.308	0.003204	-0.015411	-0.011139	0.00473	0.028381	-0.00885	0.20065	0.009918	0.035553	-0.11505	-0.034027	0.015564	-0.14694	-0.037384	0.16495	0.013275	-0.079651	-0.035248	1.2416	-0.097351	-0.49972	-0.070496	0.18173	0.46783	0.87433	-0.076599	0.20096	-0.014801	0.5455	0.15579	-0.002136	-0.016327
42.309	0.000305	-0.057983	-0.019379	-0.00946	0.005035	0.037994	0.1857	0.002899	0.039215	-0.32852	0.007782	0.020599	-0.074463	-0.10239	0.20233	-0.012665	-0.051727	-0.009155	0.49027	-0.029755	-0.32822	-0.22385	0.33493	0.29572	0.2681	0.029144	0.10284	0.009918	-0.30548	0.035858	-0.000916	-0.016937
42.31	0.00351	-0.032806	-0.014648	-0.002289	0.016327	-0.072479	0.17746	0.002747	0.052948	-0.33264	0.13809	0.016479	0.016022	0.099945	0.32211	-0.0177	-0.036163	0.017242	0.11673	-0.10391	0.1918	-0.22354	0.42145	0.14191	-0.37766	0.053101	-0.052185	0.033569	-0.068512	-0.03067	-0.002441	-0.011139
42.311	0.006104	-0.058289	0.019989	-0.011597	0.007782	-0.12802	0.2124	0.002289	0.042572	-0.19745	0.15106	0.007782	0.085297	0.21332	0.42816	-0.010529	-0.010071	-0.047913	0.39276	-0.05188	0.58212	-0.34958	0.17456	0.0383	-0.56168	0.014954	-0.074921	0.019684	0.48508	-0.070801	0.000916	-0.011902
42.312	-0.003815	-0.056	0.045624	0.002747	-0.001221	-0.063477	0.22537	-0.00061	0.040436	-0.12726	0.23987	0.010071	0.13321	0.26077	0.7341	-0.003204	0.083313	-0.049133	0.85648	0.074005	0.081329	-0.45319	0.15335	-0.15854	-0.78995	-0.000153	0.13779	-0.03479	0.12512	-0.020599	-0.001221	-0.01709
42.313	0.006256	0.004578	0.037842	-0.004883	-0.014038	-0.013275	0.177	0.001526	0.066223	-0.083008	0.17593	-0.001984	0.12238	0.42038	0.54306	0.002441	0.21805	-0.06958	0.51468	0.14984	-0.065002	-0.5632	-0.03006	-0.24078	-0.84564	-0.00824	0.22583	-0.030823	-0.1741	0.070801	0.000916	-0.017548
42.314	0.012817	-0.028076	0.03952	-0.006104	-0.016937	-0.057373	0.1947	0.002289	0.070343	-0.063019	-0.062103	-0.001221	0.13794	0.46677	-0.5188	0.002136	0.31509	-0.16998	-0.19073	0.19913	0.29572	-0.63309	-0.20096	-0.43716	-0.64301	-0.000916	0.057678	-0.010681	-0.34912	0.16922	-0.000305	0.002747
42.315	0.007477	-0.000916	0.04837	0.002899	-0.001221	-0.086365	0.17334	0.001678	0.081329	-0.039215	0.080719	-0.006256	0.11627	0.42908	-0.38849	-0.011139	0.29663	-0.18173	-0.39719	0.091248	-0.18387	-0.38238	0.063019	-0.63934	-0.39276	-0.002594	-0.15442	-0.008087	-0.71777	0.058899	0.002594	0.002136
42.316	0.000458	-0.000763	0.077667	-0.00351	-0.005646	-0.02243	0.17395	-0.002136	0.077667	-0.028534	0.09491	0.001221	-0.023651	0.42084	-0.82199	0.002441	0.10819	-0.032043	-0.39871	0.053864	-0.57648	0.11566	0.14114	-0.44464	-0.34836	-0.018005	-0.31342	-0.007172	0.67795	0.047607	0.000305	-0.003204
42.317	-0.000458	-0.03891	0.086365	0.011597	-0.017242	-0.036316	0.18936	-0.002136	0.080261	-0.028687	0.12375	0.001068	-0.091705	0.35248	-0.68298	0.003967	-0.14404	-0.041199	-0.38177	0.065308	-0.57892	0.47745	-0.19348	-0.024719	-0.10117	-0.037842	-0.14435	-0.003967	0.20966	0.12054	0.001373	-0.004578
42.318	0.002136	-0.035248	0.11978	0.009766	-0.018005	-0.2095	0.18295	-0.001678	0.062103	-0.014191	0.16266	-0.003815	-0.16571	0.38849	-0.49728	0.011597	-0.21057	-0.005341	-0.81726	0.0737	0.39459	0.31815	-0.21988	0.043335	0.082703	-0.045624	0.019073	-0.007629	-0.62698	-0.054321	-0.005951	-0.006409
42.319	-0.00473	-0.049896	0.12131	0.004883	-0.013123	-0.26886	0.19501	0.006104	0.057526	-0.027466	-0.036926	0.002289	-0.14771	0.34058	-0.18448	0.008698	-0.16876	-0.017853	-1.1316	0.031433	0.76401	-0.010071	-0.23193	0.057068	0.1181	-0.02655	0.010223	-0.021362	-0.37689	-0.041351	-0.001678	-0.013123
42.32	-0.002899	-0.041351	0.13519	-0.00473	0.016785	-0.16327	0.18433	0.001526	0.037384	-0.033417	-0.086212	0.005341	-0.10727	0.038147	-0.34027	-0.002136	-0.083466	0.052643	-1.013	0.017395	0.4541	-0.43625	-0.056152	-0.14832	0.018463	0.010376	0.036621	-0.035095	0.22308	0.028839	-0.001678	-0.007935
42.321	-0.006409	-0.077667	0.16495	-0.007019	0.038147	-0.15595	0.19547	0.005493	0.033875	-0.018463	-0.04364	0.001984	-0.088501	-0.15961	-0.27756	-0.004272	-0.03418	0.13489	-0.20493	-0.025482	0.10437	-0.4187	0.0383	-0.32486	0.052795	0.069885	0.056152	-0.023956	0.67902	-0.010681	-0.001221	0.002136
42.322	0.004425	-0.077057	0.18936	-0.002136	0.065918	-0.14008	0.20584	0	0.037384	-0.002136	-0.03067	-0.001221	-0.023956	-0.26276	-0.32105	-0.001221	0.013275	0.1648	0.30731	-0.046997	-0.12665	-0.22919	0.084686	-0.28473	0.1561	0.063629	0.121	0.037384	0.42221	0.068817	-0.005188	-0.016479
42.323	-0.003967	-0.065308	0.20416	-0.007172	0.060425	-0.084991	0.17883	0.011292	0.022736	0.008392	0.1268	-0.001678	-0.00885	-0.16846	0.90561	0.005188	0.046692	0.22492	0.074768	-0.018463	-0.066986	-0.26627	0.15243	-0.26199	0.2504	0.044708	0.10101	-0.035248	0.29144	0.13458	-0.004425	-0.010986
42.324	-0.013733	-0.06424	0.20874	-0.002289	0.042877	-0.057678	0.16357	0.013733	0.016479	0.016022	0.26871	-0.000916	-0.092621	-0.086365	0.72784	0.006561	-0.004425	0.22919	0.38498	-0.010986	0.15121	-0.30472	0.18402	-0.35507	0.29297	-0.017548	0.054779	0.021057	-0.23178	0.1059	-0.00473	-0.012817
42.325	-0.008392	-0.059357	0.21866	0.006256	-0.058899	0.05127	0.13886	0.006866	0.010681	0.083466	0.027161	-0.004578	-0.0383	0.01709	0.37399	0.001984	0.030975	0.2066	1.0602	-0.046387	0.57587	-0.22751	0.3038	-0.3743	0.26443	0.005798	0.023346	0.091095	-0.96115	-0.085907	-0.00473	-0.001984
42.326	-0.006409	-0.066986	0.23804	0.005646	-0.038147	0.11765	0.11169	0.012817	0.017242	0.18448	-0.21378	0.008545	0.022583	0.11505	0.34409	0.003357	-0.014038	0.2652	0.98267	-0.16357	0.97122	-0.15518	0.37064	-0.18387	0.41031	-0.014496	0.007477	0.019379	-0.74478	-0.13519	-0.011292	-0.012665
42.327	0.001984	-0.037384	0.22705	0.019684	-0.035706	0.083618	0.11307	0.017853	0.007477	0.14984	-0.16525	0.001221	0.18478	0.16571	-0.23819	0.007782	-0.02655	0.32852	0.37094	-0.25253	0.99228	-0.071564	0.19104	-0.012665	0.29739	-0.057068	0.045166	0.002747	0.08728	-0.025024	-0.012054	-0.011292
42.328	-0.002441	-0.038452	0.22751	0.018463	-0.044403	0.075684	0.10346	0.009613	0.005188	0.16022	-0.52887	-0.003357	0.20813	0.1889	-0.094299	0.012207	-0.053253	0.30579	-0.47058	-0.1059	1.1084	0.13702	0.27237	0.42267	-0.023956	-0.020142	0.090637	-0.033264	0.15503	0.054321	-0.007935	-0.016174
42.329	0.007172	-0.02655	0.23361	0.005188	0.042877	0.076599	0.093231	0.006561	-0.007172	0.32837	-0.336	0	0.1004	0.1416	-0.15762	0.00351	-0.098267	0.43991	-0.53253	0.005646	0.59876	0.60898	0.30868	0.5159	-0.38895	-0.018463	0.070038	-0.023041	0.077209	0.079193	-0.006104	-0.0177
42.33	0.005493	-0.002289	0.24262	0.011597	0.046997	0.091858	0.062256	0.007324	-0.003052	0.504	-0.23178	-0.001678	-0.007629	-0.0383	-0.61951	-0.006256	-0.1358	0.45929	-0.11673	0.070648	0.12314	0.71991	0.10666	0.43243	-0.43518	-0.035706	0.027466	0.006409	0.073242	0.056458	-0.012512	-0.014954
42.331	0.003204	0.019989	0.25146	0.013733	-0.003357	0.16586	0.069733	0.004272	-0.002289	0.3183	-0.092163	0.007172	-0.069427	-0.16571	-0.41779	-0.014038	-0.082092	0.44937	0.28534	0.13382	-0.071564	0.62103	-0.1799	0.2829	-0.31708	-0.057983	-0.02243	0.001984	0.14542	-0.096283	-0.00946	-0.007935
